<?xml version="1.0" encoding="utf-8"?>
<svg xmlns="http://www.w3.org/2000/svg"
	xmlns:xlink="http://www.w3.org/1999/xlink"
	width="254px" height="128px" viewBox="0 0 254 128">
<path fillRule="evenodd" d="M-0.01 127.9C-0.01 87.41 19.25 51.4 49.16 28.26 49.16 28.26 84.01 70.61 84.01 70.61 65.35 85.25 55.58 102.56 55.58 127.9 55.58 127.9-0.01 127.9-0.01 127.9Z" fill="rgb(255,199,21)"/><path fillRule="evenodd" d="M 55.12 23.96C 75.7 9.5 100.86 0.96 128.04 0.96 155.25 0.96 180.41 9.5 200.94 23.96 200.94 23.96 166.42 67 166.42 67 151.74 57.08 140.13 54.8 128.04 54.8 115.98 54.8 101.85 59.15 89.68 67 89.68 67 55.12 23.96 55.12 23.96Z" fill="rgb(163,205,59)"/><path fillRule="evenodd" d="M 205.25 28.26C 234.37 51.4 253.04 87.41 253.04 127.9 253.04 127.9 199.05 127.9 199.05 127.9 199.05 102.56 188.66 84.5 171.57 70.61 171.57 70.61 205.25 28.26 205.25 28.26Z" fill="rgb(0,147,215)"/></svg>